# xmcd CD database file
#
# Track frame offsets:
#	150
#	41525
#	81867
#	114203
#	169323
#	222850
#	268797
#
# Disc length: 4356 seconds
#
# Revision: 0
# Processed by: cddbd v1.5.2PL0 Copyright (c) Steve Scherf et al.
# Submitted via: CDex 1.70beta2
#
DISCID=5a110207
DTITLE=Darcy Hepner Jazz Orchestra - Jazz at the Corktown 04232008 (1/2)
DYEAR=2008
DGENRE=Jazz
TTITLE0=Ah That's Freedom
TTITLE1=The Interloper
TTITLE2=The Waltz You Swang For Me
TTITLE3=Tip Toe
TTITLE4=The Second Race
TTITLE5=Kids Are Pretty People
TTITLE6=The Groove Merchant
EXTD=YEAR: 2008
EXTT0=
EXTT1=
EXTT2=
EXTT3=
EXTT4=
EXTT5=
EXTT6=
PLAYORDER=
